<svg width="32" height="32" viewBox="0 0 32 32" fill="none" xmlns="http://www.w3.org/2000/svg">
<rect width="32" height="32" rx="16" fill="black"/>
<path d="M9.77041 25V8.2H17.5464C19.1784 8.2 20.4984 8.672 21.5064 9.616C22.5304 10.544 23.0424 11.752 23.0424 13.24C23.0424 14.712 22.5304 15.912 21.5064 16.84C20.4824 17.768 19.1624 18.232 17.5464 18.232H12.2904V25H9.77041ZM17.2824 10.408H12.2904V16.096H17.2824C18.2584 16.096 19.0344 15.84 19.6104 15.328C20.2024 14.8 20.4984 14.104 20.4984 13.24C20.4984 12.376 20.2024 11.688 19.6104 11.176C19.0344 10.664 18.2584 10.408 17.2824 10.408Z" fill="white"/>
<line x1="15.25" y1="9" x2="15.25" y2="25" stroke="white" stroke-width="2.5"/>
</svg>
